<svg width="61" height="61" viewBox="0 0 61 61" fill="none" xmlns="http://www.w3.org/2000/svg">
<path d="M54.9953 14.6304L31.9773 1.38193C31.5961 1.14365 31.0719 1.04834 30.5 1.04834C29.9281 1.04834 29.4039 1.19131 29.0227 1.38193L6.14766 14.678C5.3375 15.1546 4.76562 16.346 4.76562 17.2515V43.796C4.76562 44.3202 4.86094 44.9397 5.24219 45.464L56.1391 15.9171C55.8531 15.3452 55.4242 14.9163 54.9953 14.6304Z" fill="#659AD3"/>
<path d="M5.09924 45.4165C5.33752 45.7978 5.67112 46.1313 6.00471 46.322L28.975 59.6181C29.3563 59.8563 29.8805 59.9517 30.4524 59.9517C31.0242 59.9517 31.5485 59.8087 31.9297 59.6181L54.8047 46.322C55.6149 45.8454 56.1867 44.654 56.1867 43.7485V17.204C56.1867 16.7751 56.1391 16.2985 55.9008 15.8696L5.09924 45.4165Z" fill="#03599C"/>
<path d="M40.6508 36.2664C38.6492 39.793 34.8367 42.1758 30.5 42.1758C24.0664 42.1758 18.8242 36.9336 18.8242 30.5C18.8242 24.0664 24.0664 18.8242 30.5 18.8242C34.8367 18.8242 38.6492 21.207 40.6508 24.7812L46.8461 21.207C43.6055 15.5359 37.5055 11.6758 30.5 11.6758C20.1109 11.6758 11.6758 20.1109 11.6758 30.5C11.6758 40.8891 20.1109 49.3242 30.5 49.3242C37.4578 49.3242 43.5578 45.5117 46.7984 39.8883L40.6508 36.2664Z" fill="white"/>
</svg>
