<svg width="61" height="61" viewBox="0 0 61 61" fill="none" xmlns="http://www.w3.org/2000/svg">
<path d="M9.37396 12.3906L13.2193 55.5162L30.4738 60.3056L47.7763 55.51L51.626 12.3906H9.37396ZM42.3569 36.4513L41.2369 46.8842L41.2412 47.7778L30.5 50.7777V50.7782L30.4914 50.7854L19.6644 47.8188L18.9319 39.5547H24.2413L24.6178 43.7322L30.5019 45.3025L30.5 45.3097V45.2944L36.4065 43.6288L37.0298 36.6953H24.6835L24.5777 35.573L24.3366 32.8819L24.2103 31.4531H37.4997L37.983 26.2109H17.7419L17.6356 24.9771L17.3945 22.1034L17.2682 20.4922H43.7637L43.6364 22.081L42.3569 36.4513ZM42.414 6.85011L39.0071 2.85938H42.414V0.476562H34.789V2.5558L38.7874 6.19531H34.789V8.57812H42.414V6.85011ZM33.3594 6.85011L30.1154 2.85938H33.3594V0.476562H26.2109V2.5558L29.8962 6.19531H26.2109V8.57812H33.3594V6.85011ZM24.7812 6.19531H20.9687V2.85938H24.7812V0.476562H18.1094V8.57812H24.7812V6.19531Z" fill="#1572B6"/>
</svg>
