<svg width="61" height="61" viewBox="0 0 61 61" fill="none" xmlns="http://www.w3.org/2000/svg">
<path d="M36.2207 24.1084C32.5726 24.1084 30.7597 26.0127 30.7597 28.7549C30.7597 30.5201 31.6423 31.7706 32.8109 32.3429C32.2385 32.8676 31.7619 33.3266 31.3326 33.7793C30.9027 34.233 30.6406 34.7119 30.6406 35.2371C30.6406 35.8814 30.9027 36.4785 31.69 36.8112C30.8555 37.5994 30.378 38.1713 30.378 39.245C30.378 41.1288 32.0236 42.2264 36.3403 42.2264C40.4902 42.2264 42.8983 40.6771 42.8983 37.934C42.8983 34.7634 40.4664 34.6438 36.3403 34.3807L34.0032 34.2377L34.7905 32.9739C35.2189 33.093 35.9114 33.1883 36.6753 33.1883C39.6796 33.1883 41.7545 31.6386 41.7545 28.9908C41.7545 27.8937 41.2127 27.1308 40.7837 26.5818L42.8906 26.415V24.3047H38.4152C37.8672 24.3047 37.2462 24.1084 36.2207 24.1084ZM37.2939 37.6957C38.4395 37.7672 39.346 37.8148 39.346 38.5792C39.346 39.8655 37.4612 39.9622 36.0786 39.9622C34.4088 39.9622 33.1926 39.6753 33.1926 38.7217C33.1926 38.2442 33.5023 37.8391 33.8131 37.4579L37.2939 37.6957ZM36.3651 30.6845C34.7905 30.6845 34.1467 29.8729 34.1467 28.7049C34.1467 27.1546 35.1241 26.5103 36.4361 26.5103C37.7952 26.5103 38.6063 27.2499 38.6063 28.6567C38.6063 29.8977 37.6999 30.6845 36.3651 30.6845ZM47.2621 22.2484C48.6451 22.2484 49.4324 21.4611 49.4324 20.101C49.4324 18.7428 48.6451 18.0027 47.2621 18.0027C45.9025 18.0027 45.1152 18.7428 45.1152 20.101C45.1152 21.4606 45.9025 22.2484 47.2621 22.2484ZM49.0859 34.0528V24.3047H44.4476L44.1855 26.1614L45.4564 26.578C45.6957 26.649 45.75 26.7795 45.75 27.0416V34.0528C45.75 34.4112 45.5489 34.4827 45.2148 34.5308L43.8438 34.6976V36.6954H50.9922V34.6976L49.6216 34.5308C49.2627 34.4827 49.0859 34.4355 49.0859 34.0528ZM59.7695 33.5572C59.1967 33.7717 58.5152 33.938 57.8466 33.938C56.5594 33.938 56.2344 33.3899 56.2344 31.9826V26.211H59.5703V23.8282H56.4069C56.2158 23.8282 56.2344 23.8268 56.2344 23.66V20.4922H53.9502C53.6881 22.8751 52.4219 23.9216 50.5156 24.1608V26.211H52.4233C52.6144 26.211 52.4219 26.3792 52.4219 26.5217V32.7699C52.4219 35.4658 53.5914 36.6101 56.4288 36.6101C57.7889 36.6101 59.3392 36.1569 60.3652 35.6565L59.7695 33.5572ZM14.172 18.4935C14.0227 18.3442 13.8454 18.2257 13.6502 18.1449C13.4551 18.0641 13.2459 18.0224 13.0347 18.0224C12.8235 18.0224 12.6143 18.0641 12.4192 18.1449C12.2241 18.2257 12.0467 18.3442 11.8974 18.4935L9.63324 20.7577L12.5055 23.6299C12.8442 23.5146 13.2085 23.4968 13.5568 23.5784C13.9052 23.6601 14.2236 23.838 14.4758 24.0918C14.7279 24.3457 14.9037 24.6653 14.983 25.0142C15.0624 25.3631 15.0421 25.7272 14.9245 26.0652L17.6929 28.8335C18.102 28.6912 18.5473 28.6921 18.9559 28.836C19.3644 28.9798 19.712 29.2582 19.9418 29.6254C20.1715 29.9926 20.2697 30.4269 20.2204 30.8573C20.171 31.2876 19.977 31.6884 19.6701 31.9941C19.4925 32.172 19.2815 32.3131 19.0492 32.4093C18.817 32.5056 18.5681 32.5552 18.3167 32.5552C18.0653 32.5552 17.8164 32.5056 17.5841 32.4093C17.3519 32.3131 17.1409 32.172 16.9632 31.9941C16.4009 31.4313 16.1893 30.6054 16.4748 29.9125L13.8203 27.3309V34.1253C13.8203 34.2153 14.2468 34.3354 14.3989 34.487C15.1461 35.2342 15.1823 36.4457 14.4346 37.1943C14.2586 37.3719 14.0492 37.5128 13.8185 37.609C13.5877 37.7052 13.3402 37.7547 13.0902 37.7547C12.8402 37.7547 12.5927 37.7052 12.362 37.609C12.1312 37.5128 11.9218 37.3719 11.7458 37.1943C10.9986 36.4457 11.0076 35.2347 11.7554 34.487C11.9403 34.3026 11.9141 34.1629 12.3906 34.0695V27.2123C11.9141 27.1188 11.9489 26.9802 11.7644 26.7948C11.4959 26.5263 11.3134 26.184 11.24 25.8115C11.1666 25.4389 11.2056 25.053 11.3522 24.7027L8.52046 21.8705L1.04368 29.3473C0.894192 29.4966 0.775606 29.6739 0.694697 29.8691C0.613788 30.0643 0.572144 30.2735 0.572144 30.4848C0.572144 30.6961 0.613788 30.9053 0.694697 31.1005C0.775606 31.2957 0.894192 31.473 1.04368 31.6224L11.9484 42.5266C12.2501 42.828 12.6592 42.9973 13.0857 42.9973C13.5122 42.9973 13.9213 42.828 14.223 42.5266L25.0767 31.6724C25.3782 31.3706 25.5475 30.9614 25.5475 30.5348C25.5475 30.1083 25.3782 29.6991 25.0767 29.3973L14.172 18.4935Z" fill="#F34F29"/>
</svg>
