<svg width="61" height="61" viewBox="0 0 61 61" fill="none" xmlns="http://www.w3.org/2000/svg">
<path d="M9.32587 12.8672L13.1798 55.7192L30.4738 60.3333L47.8159 55.8064L51.6742 12.8672H9.32587ZM43.6579 22.6229L43.4163 25.4032L43.31 26.6875H23.0232L23.5079 32.4063H42.8277L42.6986 33.4695L41.4524 47.2464L41.3609 48.0518L30.5 50.9751V50.9727L30.4871 50.9784L19.6325 48.159L18.8957 40.0313H24.218L24.5949 44.063L30.4972 45.5589L30.5 45.4474V45.4531L36.4151 44.1907L37.0327 37.6485H18.6589L17.3559 22.9532L17.2287 21.4453H43.7847L43.6579 22.6229ZM13.3228 0.775391H16.002V3.42317H18.4535V0.775391H21.1332V8.79212H18.4535V6.10765H16.0025V8.79212H13.3228V0.775391ZM24.6564 3.43413H22.2974V0.775391H29.6961V3.43413H27.3361V8.79212H24.6564V3.43413ZM30.8703 0.775391H33.6639L35.3829 3.59235L37.0999 0.775391H39.895V8.79212H37.2257V4.81855L35.3829 7.66887H35.3362L33.4919 4.81855V8.79212H30.8698V0.775391H30.8703ZM41.2289 0.775391H43.9091V6.14244H47.6772V8.7926H41.2289V0.775391Z" fill="#E44D26"/>
</svg>
