<svg width="38" height="37" viewBox="0 0 38 37" fill="none" xmlns="http://www.w3.org/2000/svg">
<g clip-path="url(#clip0_9_338)">
<path d="M19 3.33144C24.0766 3.33144 24.6777 3.35312 26.6742 3.43984C28.5297 3.51934 29.5316 3.82285 30.1996 4.07578C31.0828 4.4082 31.7211 4.81289 32.3816 5.45605C33.0496 6.10645 33.4578 6.7207 33.7992 7.58066C34.059 8.23105 34.3707 9.21387 34.4523 11.0133C34.5414 12.9645 34.5637 13.5498 34.5637 18.4855C34.5637 23.4285 34.5414 24.0139 34.4523 25.9578C34.3707 27.7645 34.059 28.74 33.7992 29.3904C33.4578 30.2504 33.0422 30.8719 32.3816 31.515C31.7137 32.1654 31.0828 32.5629 30.1996 32.8953C29.5316 33.1482 28.5223 33.4518 26.6742 33.5312C24.6703 33.618 24.0691 33.6396 19 33.6396C13.9234 33.6396 13.3223 33.618 11.3258 33.5312C9.47031 33.4518 8.46836 33.1482 7.80039 32.8953C6.91719 32.5629 6.27891 32.1582 5.61836 31.515C4.95039 30.8646 4.54219 30.2504 4.20078 29.3904C3.94102 28.74 3.6293 27.7572 3.54766 25.9578C3.45859 24.0066 3.43633 23.4213 3.43633 18.4855C3.43633 13.5426 3.45859 12.9572 3.54766 11.0133C3.6293 9.20664 3.94102 8.23105 4.20078 7.58066C4.54219 6.7207 4.95781 6.09922 5.61836 5.45605C6.28633 4.80566 6.91719 4.4082 7.80039 4.07578C8.46836 3.82285 9.47774 3.51934 11.3258 3.43984C13.3223 3.35312 13.9234 3.33144 19 3.33144ZM19 0C13.8418 0 13.1961 0.0216797 11.1699 0.108398C9.15117 0.195117 7.76328 0.513086 6.56094 0.968359C5.30664 1.44531 4.24531 2.07402 3.19141 3.10742C2.13008 4.13359 1.48438 5.16699 0.994531 6.38105C0.526953 7.55898 0.200391 8.90312 0.111328 10.8687C0.0222656 12.8488 0 13.4775 0 18.5C0 23.5225 0.0222656 24.1512 0.111328 26.124C0.200391 28.0896 0.526953 29.441 0.994531 30.6117C1.48438 31.833 2.13008 32.8664 3.19141 33.8926C4.24531 34.9188 5.30664 35.5547 6.55352 36.0244C7.76328 36.4797 9.14375 36.7977 11.1625 36.8844C13.1887 36.9711 13.8344 36.9928 18.9926 36.9928C24.1508 36.9928 24.7965 36.9711 26.8227 36.8844C28.8414 36.7977 30.2293 36.4797 31.4316 36.0244C32.6785 35.5547 33.7398 34.9188 34.7938 33.8926C35.8477 32.8664 36.5008 31.833 36.9832 30.6189C37.4508 29.441 37.7773 28.0969 37.8664 26.1313C37.9555 24.1584 37.9777 23.5297 37.9777 18.5072C37.9777 13.4848 37.9555 12.8561 37.8664 10.8832C37.7773 8.91758 37.4508 7.56621 36.9832 6.39551C36.5156 5.16699 35.8699 4.13359 34.8086 3.10742C33.7547 2.08125 32.6934 1.44531 31.4465 0.975586C30.2367 0.520312 28.8563 0.202344 26.8375 0.115625C24.8039 0.0216797 24.1582 0 19 0Z" fill="white"/>
<path d="M19 8.99707C13.6117 8.99707 9.24023 13.2535 9.24023 18.5C9.24023 23.7465 13.6117 28.0029 19 28.0029C24.3883 28.0029 28.7598 23.7465 28.7598 18.5C28.7598 13.2535 24.3883 8.99707 19 8.99707ZM19 24.6643C15.5043 24.6643 12.6691 21.9037 12.6691 18.5C12.6691 15.0963 15.5043 12.3357 19 12.3357C22.4957 12.3357 25.3309 15.0963 25.3309 18.5C25.3309 21.9037 22.4957 24.6643 19 24.6643Z" fill="white"/>
<path d="M31.4242 8.62124C31.4242 9.84975 30.4 10.8398 29.1457 10.8398C27.884 10.8398 26.8672 9.84253 26.8672 8.62124C26.8672 7.39272 27.8914 6.40268 29.1457 6.40268C30.4 6.40268 31.4242 7.39995 31.4242 8.62124Z" fill="white"/>
</g>
<defs>
<clipPath id="clip0_9_338">
<rect width="38" height="37" fill="white"/>
</clipPath>
</defs>
</svg>
